# xmcd
# 
# Track frame offsets:
#     150
#     20782
#     46763
#     71665
#     91427
#     118779
#     141095
#     158985
#     182198
#     203580
#     228208
#     252368
# 
# Disc length: 3634
# 
# Revision: 2
# Processed by: cddbd v1.5.2PL0 Copyright (c) Steve Scherf et al.
# Submitted via: fre:ac v1.0.17
# 
DISCID=a50e300c
DTITLE=Just Chill ! - Just Chill !
DYEAR=2006
DGENRE=Club
TTITLE0=Horizon
TTITLE1=Cross My Heart
TTITLE2=Café Melange
TTITLE3=Riverside
TTITLE4=Spa Lounge
TTITLE5=Heaven On Earth
TTITLE6=Alcove
TTITLE7=Planet Mars
TTITLE8=Indoor Spa
TTITLE9=Island Dreams
TTITLE10=Sundown
TTITLE11=Lagoon
EXTD=YEAR: 2006
EXTT0=
EXTT1=
EXTT2=
EXTT3=
EXTT4=
EXTT5=
EXTT6=
EXTT7=
EXTT8=
EXTT9=
EXTT10=
EXTT11=
PLAYORDER=
